# xmcd CD database file
#
# Track frame offsets:
#	183
#	13948
#	26840
#	40460
#	53535
#	66798
#	80998
#	93910
#	107658
#	122495
#	136153
#	150250
#	164523
#	177255
#	188353
#	198778
#	210253
#	222510
#	236085
#	249575
#	263548
#	277243
#	290015
#	303205
#	317033
#
# Disc length: 4404 seconds
#
# Revision: 3
# Processed by: cddbd v1.5.2PL0 Copyright (c) Steve Scherf et al.
# Submitted via: CDex 1.51
#
DISCID=5f113219
DTITLE=Bix Beiderbecke - Vol. 017 - Bixology
DYEAR=1946
DGENRE=Jazz
TTITLE0=Bix Beiderbecke - Jazz Me Blues
TTITLE1=At The Jazz Band Ball
TTITLE2=Royal Garden Blues
TTITLE3=Sorry
TTITLE4=Singin' The Blues
TTITLE5=I'm Comin' Virginia
TTITLE6=Way Down Yonder In New Orleans
TTITLE7=For No Reason At All In 'C'
TTITLE8=Goose Pimples
TTITLE9=Trumbology
TTITLE10=Ostric Walk
TTITLE11=Riverboat Shuffle
TTITLE12=Davenport Blues
TTITLE13=Copenhagen
TTITLE14=Fidgety Feet
TTITLE15=Tiger Rag
TTITLE16=In A Mist (Bixology)
TTITLE17=Clementine
TTITLE18=Thou Swell
TTITLE19=Ol' Man River
TTITLE20=Wa-Da-Da (Ev'rybody's Doin' It Now)
TTITLE21=Louisiana
TTITLE22=Margie
TTITLE23=I'll Be A Friend With Pleasure
TTITLE24=Bessie Couldn't Help It
EXTD=YEAR: 1946
EXTT0=
EXTT1=
EXTT2=
EXTT3=
EXTT4=
EXTT5=
EXTT6=
EXTT7=
EXTT8=
EXTT9=
EXTT10=
EXTT11=
EXTT12=
EXTT13=
EXTT14=
EXTT15=
EXTT16=
EXTT17=
EXTT18=
EXTT19=
EXTT20=
EXTT21=
EXTT22=
EXTT23=
EXTT24=
PLAYORDER=
